<?xml version="1.0" encoding="UTF-8"?>
<svg id="Layer_1" xmlns="http://www.w3.org/2000/svg" version="1.1" viewBox="0 0 18 18">
  <!-- Generator: Adobe Illustrator 29.6.1, SVG Export Plug-In . SVG Version: 2.1.1 Build 9)  -->
  <path d="M14.2,14.9c-1.1,0-1.9-.3-2.4-.8-.5-.6-.6-1.3-.4-2.3l.8-3.7h-2.6l.3-1.6h2.6l.5-2.3,2.2-.4-.6,2.7h3.4l-.3,1.6h-3.5l-.8,3.6c-.1.5,0,.9.2,1.1.2.2.6.3,1.2.3s.6,0,.9,0c.3,0,.6-.1,1-.2l-.4,1.7c-.3.1-.6.2-1,.3s-.8,0-1.1,0Z"/>
  <path d="M1.5,14.7L3.6,5H0l.4-1.9h9.3l-.4,1.9h-3.5l-2.1,9.7H1.5Z"/>
</svg>